<?xml version="1.0" encoding="utf-8"?>
<!-- Generator: Adobe Illustrator 23.0.1, SVG Export Plug-In . SVG Version: 6.00 Build 0)  -->
<svg version="1.1" id="Layer_1" xmlns="http://www.w3.org/2000/svg" xmlns:xlink="http://www.w3.org/1999/xlink" x="0px" y="0px"
	 viewBox="0 0 150 30" style="enable-background:new 0 0 150 30;" xml:space="preserve">
<style type="text/css">
	.st0{fill:#3B8EB3;}
	.st1{fill:#FFFFFF;}
</style>
<g>
	<g id="Background">
	</g>
	<g id="Artwork">
		<g>
			<g>
				<path class="st0" d="M75.95,29.97v-2.65h0.72c0.2,0,0.39,0.05,0.55,0.15c0.16,0.1,0.29,0.23,0.39,0.41
					c0.09,0.17,0.14,0.37,0.14,0.59v0.34c0,0.22-0.05,0.42-0.14,0.6c-0.09,0.18-0.22,0.31-0.38,0.41c-0.16,0.1-0.35,0.15-0.55,0.15
					L75.95,29.97L75.95,29.97z M76.04,27.41v2.45h0.63c0.18,0,0.35-0.05,0.5-0.14c0.15-0.09,0.27-0.22,0.35-0.38
					c0.08-0.16,0.13-0.34,0.13-0.54v-0.34c0-0.2-0.04-0.38-0.13-0.54c-0.08-0.16-0.2-0.29-0.35-0.38c-0.15-0.09-0.31-0.14-0.49-0.14
					L76.04,27.41L76.04,27.41z"/>
				<path class="st0" d="M79.76,28.65h-1.31v1.22h1.49v0.1h-1.59v-2.65h1.59v0.1h-1.49v1.14h1.31V28.65z"/>
				<path class="st0" d="M82.01,29.33c0-0.11-0.03-0.21-0.08-0.29c-0.05-0.08-0.13-0.15-0.25-0.21c-0.11-0.06-0.28-0.12-0.51-0.18
					c-0.23-0.06-0.4-0.13-0.51-0.19c-0.11-0.06-0.2-0.14-0.25-0.22c-0.05-0.08-0.08-0.19-0.08-0.31c0-0.19,0.08-0.35,0.24-0.47
					c0.16-0.12,0.37-0.18,0.63-0.18c0.17,0,0.32,0.03,0.45,0.1c0.13,0.07,0.24,0.16,0.31,0.28c0.07,0.12,0.11,0.25,0.11,0.4h-0.1
					c0-0.2-0.07-0.36-0.22-0.49c-0.14-0.13-0.33-0.19-0.56-0.19c-0.23,0-0.41,0.05-0.56,0.16c-0.14,0.1-0.21,0.23-0.21,0.39
					c0,0.16,0.06,0.29,0.19,0.38s0.33,0.18,0.61,0.26c0.28,0.08,0.49,0.16,0.62,0.26c0.17,0.13,0.25,0.29,0.25,0.5
					c0,0.13-0.04,0.25-0.11,0.35c-0.08,0.1-0.18,0.18-0.32,0.24C81.54,29.97,81.39,30,81.22,30c-0.19,0-0.36-0.03-0.51-0.1
					c-0.15-0.06-0.26-0.16-0.34-0.27c-0.08-0.12-0.11-0.26-0.11-0.42h0.1c0,0.22,0.08,0.39,0.24,0.51c0.16,0.12,0.37,0.18,0.63,0.18
					c0.23,0,0.42-0.05,0.57-0.16C81.93,29.64,82.01,29.5,82.01,29.33z"/>
				<path class="st0" d="M82.78,29.97h-0.1v-2.65h0.1V29.97z"/>
				<path class="st0" d="M85.41,29.68c-0.07,0.09-0.18,0.17-0.35,0.23C84.9,29.97,84.72,30,84.52,30c-0.19,0-0.37-0.05-0.52-0.14
					c-0.15-0.1-0.27-0.23-0.36-0.41c-0.09-0.17-0.13-0.37-0.13-0.59V28.4c0-0.22,0.04-0.41,0.12-0.58c0.08-0.17,0.2-0.31,0.35-0.4
					c0.15-0.09,0.32-0.14,0.5-0.14c0.26,0,0.47,0.07,0.63,0.2c0.16,0.14,0.26,0.32,0.28,0.55h-0.1c-0.03-0.21-0.12-0.37-0.26-0.49
					c-0.14-0.11-0.33-0.17-0.56-0.17c-0.26,0-0.47,0.09-0.64,0.29c-0.16,0.19-0.24,0.44-0.24,0.75v0.42c0,0.21,0.04,0.39,0.11,0.55
					c0.08,0.16,0.18,0.29,0.32,0.38c0.14,0.09,0.3,0.13,0.47,0.13c0.17,0,0.34-0.03,0.49-0.08c0.15-0.05,0.25-0.12,0.31-0.19v-0.77
					h-0.8v-0.1h0.9L85.41,29.68L85.41,29.68z"/>
				<path class="st0" d="M87.98,29.97h-0.1l-1.69-2.48v2.48h-0.1v-2.65h0.1l1.69,2.48v-2.48h0.1V29.97z"/>
				<path class="st0" d="M90.1,28.65h-1.31v1.22h1.49v0.1h-1.59v-2.65h1.59v0.1h-1.49v1.14h1.31V28.65z"/>
				<path class="st0" d="M91.78,28.83h-0.91v1.13h-0.1v-2.65h0.83c0.26,0,0.47,0.07,0.62,0.21c0.16,0.14,0.23,0.32,0.23,0.56
					c0,0.18-0.06,0.34-0.17,0.47c-0.11,0.14-0.25,0.22-0.42,0.25l0.7,1.13v0.03h-0.1L91.78,28.83z M90.88,28.73h0.82
					c0.2,0,0.36-0.06,0.49-0.19s0.19-0.28,0.19-0.47c0-0.21-0.07-0.37-0.21-0.49c-0.14-0.12-0.32-0.18-0.56-0.18h-0.73L90.88,28.73
					L90.88,28.73z"/>
				<path class="st0" d="M95.91,29.68c-0.07,0.09-0.18,0.17-0.35,0.23C95.4,29.97,95.22,30,95.02,30c-0.19,0-0.37-0.05-0.52-0.14
					c-0.15-0.1-0.27-0.23-0.36-0.41c-0.09-0.17-0.13-0.37-0.13-0.59V28.4c0-0.22,0.04-0.41,0.12-0.58c0.08-0.17,0.2-0.31,0.35-0.4
					c0.15-0.09,0.32-0.14,0.5-0.14c0.26,0,0.47,0.07,0.63,0.2c0.16,0.14,0.26,0.32,0.28,0.55h-0.1c-0.03-0.21-0.12-0.37-0.26-0.49
					c-0.14-0.11-0.33-0.17-0.56-0.17c-0.26,0-0.47,0.09-0.64,0.29c-0.16,0.19-0.24,0.44-0.24,0.75v0.42c0,0.21,0.04,0.39,0.11,0.55
					c0.08,0.16,0.18,0.29,0.32,0.38c0.14,0.09,0.3,0.13,0.47,0.13c0.17,0,0.34-0.03,0.49-0.08c0.15-0.05,0.25-0.12,0.31-0.19v-0.77
					h-0.8v-0.1h0.9V29.68z"/>
				<path class="st0" d="M97.59,28.83h-0.91v1.13h-0.1v-2.65h0.83c0.26,0,0.47,0.07,0.62,0.21c0.16,0.14,0.23,0.32,0.23,0.56
					c0,0.18-0.06,0.34-0.17,0.47c-0.11,0.14-0.25,0.22-0.42,0.25l0.7,1.13v0.03h-0.1L97.59,28.83z M96.68,28.73h0.82
					c0.2,0,0.36-0.06,0.49-0.19s0.19-0.28,0.19-0.47c0-0.21-0.07-0.37-0.21-0.49c-0.14-0.12-0.32-0.18-0.56-0.18h-0.73L96.68,28.73
					L96.68,28.73z"/>
				<path class="st0" d="M100.38,29.17H99.1l-0.29,0.79H98.7l0.98-2.65h0.12l0.98,2.65h-0.11L100.38,29.17z M99.13,29.08h1.21
					l-0.6-1.64L99.13,29.08z M100.01,26.59h0.12l-0.35,0.48l-0.11,0L100.01,26.59z"/>
				<path class="st0" d="M102.63,28.66h-1.34v1.3h-0.1v-2.65h1.62v0.1h-1.52v1.15h1.34L102.63,28.66L102.63,28.66z"/>
				<path class="st0" d="M103.46,29.97h-0.1v-2.65h0.1V29.97z"/>
				<path class="st0" d="M106.03,29.15c-0.03,0.27-0.12,0.48-0.28,0.63c-0.16,0.15-0.38,0.22-0.65,0.22c-0.19,0-0.35-0.05-0.49-0.14
					c-0.14-0.09-0.25-0.23-0.33-0.41c-0.08-0.17-0.12-0.38-0.12-0.6v-0.41c0-0.23,0.04-0.43,0.12-0.61
					c0.08-0.18,0.19-0.31,0.33-0.41c0.14-0.1,0.31-0.15,0.5-0.15c0.27,0,0.49,0.07,0.65,0.22c0.16,0.15,0.25,0.36,0.28,0.63h-0.1
					c-0.03-0.24-0.11-0.43-0.25-0.55c-0.14-0.13-0.33-0.19-0.58-0.19c-0.25,0-0.46,0.1-0.62,0.29c-0.16,0.19-0.23,0.46-0.23,0.78
					v0.39c0,0.21,0.03,0.39,0.1,0.55c0.07,0.16,0.17,0.29,0.3,0.38c0.13,0.09,0.28,0.14,0.45,0.14c0.25,0,0.45-0.06,0.59-0.19
					c0.14-0.13,0.22-0.31,0.25-0.56L106.03,29.15L106.03,29.15z"/>
				<path class="st0" d="M108.49,28.84c0,0.23-0.04,0.43-0.12,0.61c-0.08,0.18-0.2,0.31-0.35,0.41c-0.15,0.1-0.32,0.15-0.52,0.15
					c-0.3,0-0.53-0.11-0.71-0.32c-0.18-0.21-0.27-0.5-0.27-0.86v-0.38c0-0.23,0.04-0.43,0.12-0.61c0.08-0.18,0.2-0.31,0.35-0.41
					c0.15-0.1,0.32-0.15,0.52-0.15c0.19,0,0.37,0.05,0.52,0.15c0.15,0.1,0.27,0.23,0.35,0.41c0.08,0.18,0.12,0.38,0.12,0.61
					L108.49,28.84L108.49,28.84z M108.39,28.44c0-0.32-0.08-0.58-0.24-0.77c-0.16-0.19-0.38-0.29-0.65-0.29
					c-0.27,0-0.48,0.1-0.64,0.29c-0.16,0.19-0.24,0.46-0.24,0.78v0.39c0,0.21,0.04,0.4,0.11,0.56c0.07,0.16,0.17,0.29,0.31,0.37
					c0.14,0.09,0.29,0.13,0.47,0.13c0.27,0,0.49-0.1,0.65-0.29c0.16-0.19,0.24-0.46,0.24-0.79L108.39,28.44L108.39,28.44z"/>
				<path class="st0" d="M111.37,28.65h-1.31v1.22h1.49v0.1h-1.59v-2.65h1.59v0.1h-1.49v1.14h1.31V28.65z"/>
				<path class="st0" d="M112.94,29.97v-2.65h0.72c0.2,0,0.39,0.05,0.55,0.15c0.16,0.1,0.29,0.23,0.39,0.41
					c0.09,0.17,0.14,0.37,0.14,0.59v0.34c0,0.22-0.05,0.42-0.14,0.6c-0.09,0.18-0.22,0.31-0.38,0.41c-0.16,0.1-0.35,0.15-0.55,0.15
					L112.94,29.97L112.94,29.97z M113.03,27.41v2.45h0.63c0.18,0,0.35-0.05,0.5-0.14c0.15-0.09,0.27-0.22,0.35-0.38
					c0.08-0.16,0.13-0.34,0.13-0.54v-0.34c0-0.2-0.04-0.38-0.13-0.54c-0.08-0.16-0.2-0.29-0.35-0.38c-0.15-0.09-0.31-0.14-0.49-0.14
					L113.03,27.41L113.03,27.41z"/>
				<path class="st0" d="M116.75,28.65h-1.31v1.22h1.49v0.1h-1.59v-2.65h1.59v0.1h-1.49v1.14h1.31V28.65z"/>
				<path class="st0" d="M119,29.33c0-0.11-0.03-0.21-0.08-0.29c-0.05-0.08-0.13-0.15-0.25-0.21c-0.11-0.06-0.28-0.12-0.51-0.18
					c-0.23-0.06-0.4-0.13-0.51-0.19c-0.11-0.06-0.2-0.14-0.25-0.22c-0.05-0.08-0.08-0.19-0.08-0.31c0-0.19,0.08-0.35,0.24-0.47
					c0.16-0.12,0.37-0.18,0.63-0.18c0.17,0,0.32,0.03,0.45,0.1c0.13,0.07,0.24,0.16,0.31,0.28c0.07,0.12,0.11,0.25,0.11,0.4h-0.1
					c0-0.2-0.07-0.36-0.22-0.49c-0.14-0.13-0.33-0.19-0.56-0.19c-0.23,0-0.41,0.05-0.56,0.16c-0.14,0.1-0.21,0.23-0.21,0.39
					c0,0.16,0.06,0.29,0.19,0.38c0.12,0.1,0.33,0.18,0.61,0.26s0.49,0.16,0.62,0.26c0.17,0.13,0.25,0.29,0.25,0.5
					c0,0.13-0.04,0.25-0.11,0.35c-0.08,0.1-0.18,0.18-0.32,0.24c-0.14,0.06-0.29,0.08-0.46,0.08c-0.19,0-0.36-0.03-0.51-0.1
					c-0.15-0.06-0.26-0.16-0.34-0.27c-0.08-0.12-0.11-0.26-0.11-0.42h0.1c0,0.22,0.08,0.39,0.24,0.51c0.16,0.12,0.37,0.18,0.63,0.18
					c0.23,0,0.42-0.05,0.57-0.16C118.92,29.64,119,29.5,119,29.33z"/>
				<path class="st0" d="M121.01,28.65h-1.31v1.22h1.49v0.1h-1.59v-2.65h1.59v0.1h-1.49v1.14h1.31V28.65z"/>
				<path class="st0" d="M123.58,29.97h-0.1l-1.69-2.48v2.48h-0.1v-2.65h0.1l1.69,2.48v-2.48h0.1V29.97z"/>
				<path class="st0" d="M124.98,29.71l0.05,0.16l0.05-0.16l0.88-2.39h0.11l-0.98,2.65h-0.12L124,27.32h0.11L124.98,29.71z"/>
				<path class="st0" d="M128.32,28.84c0,0.23-0.04,0.43-0.12,0.61c-0.08,0.18-0.2,0.31-0.35,0.41c-0.15,0.1-0.32,0.15-0.52,0.15
					c-0.3,0-0.53-0.11-0.71-0.32c-0.18-0.21-0.27-0.5-0.27-0.86v-0.38c0-0.23,0.04-0.43,0.12-0.61c0.08-0.18,0.2-0.31,0.35-0.41
					c0.15-0.1,0.32-0.15,0.52-0.15c0.19,0,0.37,0.05,0.52,0.15c0.15,0.1,0.27,0.23,0.35,0.41c0.08,0.18,0.12,0.38,0.12,0.61
					L128.32,28.84L128.32,28.84z M128.22,28.44c0-0.32-0.08-0.58-0.24-0.77c-0.16-0.19-0.38-0.29-0.65-0.29
					c-0.27,0-0.48,0.1-0.64,0.29c-0.16,0.19-0.24,0.46-0.24,0.78v0.39c0,0.21,0.04,0.4,0.11,0.56c0.07,0.16,0.17,0.29,0.31,0.37
					c0.14,0.09,0.29,0.13,0.47,0.13c0.27,0,0.49-0.1,0.65-0.29s0.24-0.46,0.24-0.79L128.22,28.44L128.22,28.44z"/>
				<path class="st0" d="M129.01,29.87h1.34v0.1h-1.44v-2.65h0.1L129.01,29.87L129.01,29.87z"/>
				<path class="st0" d="M131.19,29.71l0.05,0.16l0.05-0.16l0.88-2.39h0.11l-0.98,2.65h-0.12l-0.98-2.65h0.11L131.19,29.71z"/>
				<path class="st0" d="M134.1,28.65h-1.31v1.22h1.49v0.1h-1.59v-2.65h1.59v0.1h-1.49v1.14h1.31V28.65z"/>
				<path class="st0" d="M134.78,29.97v-2.65h0.72c0.2,0,0.39,0.05,0.55,0.15c0.16,0.1,0.29,0.23,0.39,0.41
					c0.09,0.17,0.14,0.37,0.14,0.59v0.34c0,0.22-0.05,0.42-0.14,0.6c-0.09,0.18-0.22,0.31-0.38,0.41c-0.16,0.1-0.35,0.15-0.55,0.15
					L134.78,29.97L134.78,29.97z M134.88,27.41v2.45h0.63c0.18,0,0.35-0.05,0.5-0.14c0.15-0.09,0.27-0.22,0.35-0.38
					c0.08-0.16,0.13-0.34,0.13-0.54v-0.34c0-0.2-0.04-0.38-0.13-0.54c-0.08-0.16-0.2-0.29-0.35-0.38c-0.15-0.09-0.31-0.14-0.49-0.14
					L134.88,27.41L134.88,27.41z"/>
				<path class="st0" d="M139.04,28.84c0,0.23-0.04,0.43-0.12,0.61c-0.08,0.18-0.2,0.31-0.35,0.41c-0.15,0.1-0.32,0.15-0.52,0.15
					c-0.3,0-0.53-0.11-0.71-0.32c-0.18-0.21-0.27-0.5-0.27-0.86v-0.38c0-0.23,0.04-0.43,0.12-0.61c0.08-0.18,0.2-0.31,0.35-0.41
					c0.15-0.1,0.32-0.15,0.52-0.15c0.19,0,0.37,0.05,0.52,0.15c0.15,0.1,0.27,0.23,0.35,0.41c0.08,0.18,0.12,0.38,0.12,0.61
					L139.04,28.84L139.04,28.84z M138.94,28.44c0-0.32-0.08-0.58-0.24-0.77c-0.16-0.19-0.38-0.29-0.65-0.29
					c-0.27,0-0.48,0.1-0.64,0.29c-0.16,0.19-0.24,0.46-0.24,0.78v0.39c0,0.21,0.04,0.4,0.11,0.56c0.07,0.16,0.17,0.29,0.31,0.37
					c0.14,0.09,0.29,0.13,0.47,0.13c0.27,0,0.49-0.1,0.65-0.29c0.16-0.19,0.24-0.46,0.24-0.79L138.94,28.44L138.94,28.44z"/>
				<path class="st0" d="M140.63,28.83h-0.91v1.13h-0.1v-2.65h0.83c0.26,0,0.47,0.07,0.62,0.21c0.16,0.14,0.23,0.32,0.23,0.56
					c0,0.18-0.06,0.34-0.17,0.47c-0.11,0.14-0.25,0.22-0.42,0.25l0.7,1.13v0.03h-0.1L140.63,28.83z M139.73,28.73h0.82
					c0.2,0,0.36-0.06,0.49-0.19s0.19-0.28,0.19-0.47c0-0.21-0.07-0.37-0.21-0.49c-0.14-0.12-0.32-0.18-0.56-0.18h-0.73L139.73,28.73
					L139.73,28.73z"/>
				<path class="st0" d="M143.44,29.8l0.12-0.44l0.62-2.05h0.11l0.61,2.05l0.12,0.44l0.12-0.44l0.54-2.05h0.11l-0.7,2.65h-0.11
					l-0.65-2.21l-0.09-0.28l-0.09,0.28l-0.65,2.21h-0.11l-0.7-2.65h0.11l0.54,2.05L143.44,29.8z"/>
				<path class="st0" d="M147.66,28.65h-1.31v1.22h1.49v0.1h-1.59v-2.65h1.59v0.1h-1.49v1.14h1.31V28.65z"/>
				<path class="st0" d="M148.34,29.97v-2.65h0.69c0.28,0,0.49,0.06,0.64,0.17c0.14,0.12,0.22,0.28,0.22,0.5
					c0,0.16-0.04,0.29-0.12,0.4c-0.08,0.11-0.19,0.17-0.34,0.2c0.17,0.02,0.3,0.09,0.41,0.22c0.11,0.12,0.16,0.26,0.16,0.42
					c0,0.23-0.07,0.4-0.22,0.53c-0.14,0.13-0.34,0.2-0.6,0.2H148.34z M148.44,28.56h0.63c0.24,0,0.42-0.05,0.54-0.14
					c0.12-0.09,0.18-0.24,0.18-0.43c0-0.38-0.24-0.57-0.73-0.57h-0.61V28.56z M148.44,28.66v1.21h0.76c0.22,0,0.39-0.06,0.52-0.17
					c0.13-0.11,0.19-0.27,0.19-0.46c0-0.17-0.06-0.31-0.18-0.41c-0.12-0.11-0.29-0.16-0.49-0.17L148.44,28.66L148.44,28.66z"/>
			</g>
			<g>
				<path class="st1" d="M34.7,12.09c0,2.11-0.36,3.95-1.07,5.53c-0.71,1.57-1.72,2.77-3.02,3.6s-2.82,1.24-4.56,1.24
					c-1.7,0-3.2-0.42-4.51-1.25c-1.31-0.83-2.33-2.02-3.06-3.57c-0.72-1.54-1.1-3.33-1.12-5.36v-1.55c0-2.07,0.36-3.9,1.08-5.49
					c0.72-1.59,1.74-2.8,3.06-3.65c1.32-0.84,2.82-1.26,4.52-1.26c1.73,0,3.25,0.42,4.57,1.25c1.32,0.83,2.33,2.04,3.04,3.63
					c0.71,1.58,1.07,3.43,1.07,5.53L34.7,12.09L34.7,12.09z M31.88,10.7c0-2.56-0.51-4.52-1.54-5.88c-1.03-1.37-2.46-2.05-4.31-2.05
					c-1.79,0-3.21,0.68-4.24,2.05c-1.03,1.37-1.56,3.26-1.59,5.69v1.58c0,2.48,0.52,4.42,1.56,5.84c1.04,1.41,2.47,2.12,4.3,2.12
					c1.84,0,3.26-0.67,4.26-2.01c1.01-1.34,1.52-3.25,1.55-5.75L31.88,10.7L31.88,10.7z"/>
				<path class="st1" d="M54.13,0.62v14.65c-0.01,2.03-0.65,3.69-1.92,4.99c-1.27,1.29-2.99,2.02-5.16,2.18l-0.76,0.03
					c-2.36,0-4.24-0.64-5.64-1.91c-1.4-1.27-2.11-3.02-2.13-5.25V0.62h2.81v14.59c0,1.56,0.43,2.77,1.29,3.63
					c0.86,0.86,2.08,1.3,3.67,1.3c1.61,0,2.84-0.43,3.69-1.29c0.85-0.86,1.28-2.07,1.28-3.63V0.62H54.13z"/>
				<path class="st1" d="M95.45,19.84h10.21v2.32H92.59V0.62h2.86V19.84z"/>
				<path class="st1" d="M111.95,22.17h-2.84V0.62h2.84V22.17z"/>
				<path class="st1" d="M119.99,13.73v8.43h-2.84V0.62h7.95c2.36,0,4.21,0.6,5.54,1.8c1.34,1.2,2.01,2.8,2.01,4.78
					c0,2.09-0.65,3.7-1.96,4.83s-3.18,1.7-5.62,1.7L119.99,13.73L119.99,13.73z M119.99,11.41h5.11c1.52,0,2.68-0.36,3.49-1.07
					c0.81-0.72,1.21-1.75,1.21-3.11c0-1.28-0.4-2.31-1.21-3.08c-0.81-0.77-1.92-1.17-3.33-1.2h-5.27V11.41z"/>
				<polygon class="st1" points="78.21,2.94 78.21,9.93 83.22,9.93 83.22,12.21 78.21,12.21 78.21,19.77 89.16,19.77 89.16,22.17 
					75.37,22.17 75.37,0.62 89.16,0.62 89.16,2.94 				"/>
				<rect x="58.23" y="0.62" class="st0" width="13.78" height="2.32"/>
				<polygon class="st1" points="72,9.81 72,12.21 60.82,12.21 60.82,22.17 58.23,22.17 58.23,9.81 				"/>
				<polygon class="st1" points="139.05,2.94 139.05,9.93 144.07,9.93 144.07,12.21 139.05,12.21 139.05,19.77 150,19.77 150,22.17 
					136.21,22.17 136.21,0.62 150,0.62 150,2.94 				"/>
				<polygon class="st1" points="2.39,2.71 2.39,9.77 13.32,9.77 13.32,22.46 0,22.46 0,20.08 10.94,20.08 10.94,12.15 0,12.15 
					0,0.32 13.32,0.32 13.32,2.71 				"/>
			</g>
		</g>
	</g>
	<g id="Txt">
	</g>
	<g id="Guias">
	</g>
</g>
</svg>
